<svg xmlns="http://www.w3.org/2000/svg" viewBox="0 0 76 88"><defs><style>.cls-1{fill:#f77622;}.cls-2{fill:#ead4aa;}.cls-3{fill:#e4a672;}.cls-4{fill:#e43b44;}.cls-5{fill:#a22633;}</style></defs><title>Asset 8</title><g id="Layer_2" data-name="Layer 2"><g id="Icon"><polygon class="cls-1" points="72 56 12 56 12 60 76 60 76 0 72 0 72 56"/><polygon class="cls-2" points="44 68 44 76 24 76 24 68 8 68 8 80 72 80 72 68 44 68"/><polygon class="cls-2" points="56 44 56 36 52 36 52 40 36 40 36 32 44 32 44 36 48 36 48 24 44 24 44 28 36 28 36 20 52 20 52 24 56 24 56 16 28 16 28 20 32 20 32 40 28 40 28 44 56 44"/><polygon class="cls-3" points="8 68 72 68 72 64 4 64 4 80 8 80 8 68"/><rect class="cls-4" x="4" y="80" width="72" height="4"/><rect class="cls-4" x="24" y="68" width="20" height="8"/><rect class="cls-4" x="4" width="4" height="60"/><path class="cls-4" d="M72,56V0H12V56ZM28,40h4V20H28V16H56v8H52V20H36v8h8V24h4V36H44V32H36v8H52V36h4v8H28Z"/><rect class="cls-5" x="4" y="84" width="72" height="4"/><polygon class="cls-5" points="4 64 72 64 72 80 76 80 76 60 12 60 12 0 8 0 8 60 4 60 4 4 0 4 0 84 4 84 4 64"/></g></g></svg>